<?xml version="1.0" encoding="utf-8"?>
<!-- Generator: Adobe Illustrator 25.2.0, SVG Export Plug-In . SVG Version: 6.00 Build 0)  -->
<svg version="1.1" id="Layer_1" xmlns="http://www.w3.org/2000/svg" x="0px" y="0px"
     viewBox="0 0 371.1 100.9" style="enable-background:new 0 0 371.1 100.9;" xml:space="preserve">
<style type="text/css">
	.st0{fill:#080807;}
	.st1{fill:#E52713;}
</style>
<g>
	<polygon class="st0" points="107.9,48 112,56.9 113.3,56.9 117.3,48 118.6,56.8 122.8,56.8 120.5,41.4 116.3,41.4 112.6,49.8
		109,41.4 104.8,41.4 102.4,56.8 106.7,56.8 	"/>
	<path class="st0" d="M130.3,57.2c1.5,0,2.8-0.4,3.9-1.2c1.1-0.8,1.9-1.9,2.3-3.2h-4.1c-0.1,0.2-0.3,0.4-0.5,0.6
		c-0.2,0.2-0.5,0.3-0.7,0.4s-0.6,0.1-0.9,0.1c-0.7,0-1.2-0.2-1.6-0.5s-0.7-0.9-0.8-1.5h8.8c0.1-0.4,0.1-0.7,0.1-1.1
		c0-1.2-0.3-2.2-0.8-3.2c-0.5-1-1.3-1.7-2.3-2.2c-1-0.5-2.1-0.8-3.4-0.8c-1.2,0-2.3,0.3-3.3,0.8s-1.8,1.3-2.3,2.3
		c-0.6,1-0.8,2-0.8,3.3c0,1.8,0.6,3.3,1.8,4.5C126.9,56.6,128.5,57.2,130.3,57.2z M128.8,48.3c0.4-0.3,0.9-0.5,1.5-0.5
		c1.3,0,2.1,0.6,2.5,1.8H128C128.2,49,128.4,48.6,128.8,48.3z"/>
	<path class="st0" d="M144.2,57.2c1.4,0,2.6-0.4,3.6-1.3l0.4,0.9h3V40.7h-4.1v4.7c-0.9-0.6-1.9-0.8-2.9-0.8c-1.8,0-3.3,0.6-4.5,1.8
		c-1.2,1.2-1.8,2.7-1.8,4.6c0,1.8,0.6,3.4,1.8,4.6C140.9,56.6,142.4,57.2,144.2,57.2z M142.9,49c0.5-0.5,1.1-0.8,1.9-0.8
		c0.4,0,0.7,0.1,1.1,0.2s0.6,0.3,0.9,0.6c0.2,0.2,0.4,0.5,0.6,0.9s0.2,0.7,0.2,1.1c0,0.8-0.2,1.4-0.8,2c-0.5,0.5-1.1,0.8-1.9,0.8
		c-0.8,0-1.4-0.3-1.9-0.8c-0.5-0.5-0.8-1.2-0.8-2C142.1,50.1,142.4,49.5,142.9,49z"/>
	<rect x="153.8" y="45" class="st0" width="4.1" height="11.9"/>
	<rect x="153.8" y="40" class="st0" width="4" height="3.5"/>
	<path class="st0" d="M162.8,56.4c0.9,0.5,2,0.8,3.2,0.8c1.4,0,2.6-0.4,3.6-1.2l0.4,0.8h3.1V44.9h-3l-0.4,0.9
		c-1-0.8-2.2-1.3-3.6-1.3c-1.8,0-3.3,0.6-4.5,1.8s-1.8,2.7-1.8,4.5c0,1.2,0.3,2.3,0.8,3.3C161.1,55.1,161.9,55.9,162.8,56.4z
		 M164.7,49c0.5-0.5,1.1-0.8,1.9-0.8c0.8,0,1.4,0.3,1.9,0.8c0.5,0.5,0.8,1.2,0.8,1.9c0,0.8-0.2,1.4-0.8,1.9
		c-0.5,0.5-1.1,0.8-1.9,0.8c-0.8,0-1.4-0.3-1.9-0.8c-0.5-0.5-0.8-1.2-0.8-1.9C163.9,50.1,164.2,49.5,164.7,49z"/>
	<rect x="181.9" y="41.4" class="st0" width="4.3" height="15.4"/>
	<path class="st0" d="M200.5,56.8v-7.2c0-1.5-0.4-2.7-1.2-3.6s-1.9-1.4-3.3-1.4c-1.6,0-2.8,0.5-3.7,1.6l-0.6-1.2h-2.9v11.9h4.1v-6.3
		c0-0.5,0.1-1,0.2-1.3c0.1-0.4,0.4-0.6,0.7-0.8c0.3-0.2,0.7-0.3,1.1-0.3c1,0,1.5,0.7,1.5,2.1v6.7L200.5,56.8L200.5,56.8z"/>
	<path class="st0" d="M212.8,53.1c0-0.3,0-0.6-0.1-0.9c-0.1-0.3-0.1-0.5-0.2-0.7s-0.2-0.4-0.4-0.6c-0.2-0.2-0.3-0.3-0.5-0.5
		c-0.1-0.1-0.3-0.2-0.6-0.3c-0.3-0.1-0.5-0.2-0.6-0.2s-0.4-0.1-0.7-0.2c-0.3-0.1-0.5-0.1-0.6-0.1c-0.1,0-0.3-0.1-0.6-0.1
		c-0.4-0.1-0.7-0.1-0.8-0.2s-0.4-0.1-0.6-0.2c-0.2-0.1-0.4-0.2-0.5-0.3c-0.1-0.1-0.1-0.3-0.1-0.4c0-0.3,0.1-0.5,0.3-0.6
		s0.5-0.2,0.8-0.2c0.4,0,0.7,0.1,0.9,0.3c0.2,0.2,0.3,0.5,0.3,0.9h3.8c0-1.2-0.5-2.2-1.4-2.9c-0.9-0.7-2.1-1.1-3.6-1.1
		c-1.5,0-2.8,0.4-3.7,1.1c-0.9,0.7-1.4,1.7-1.4,2.8c0,0.6,0.1,1,0.3,1.5c0.2,0.4,0.4,0.8,0.7,1s0.6,0.5,1,0.7
		c0.4,0.2,0.8,0.3,1.1,0.4c0.3,0.1,0.7,0.2,1.2,0.2c0.5,0.1,0.8,0.1,1.1,0.2s0.5,0.2,0.7,0.3s0.3,0.3,0.3,0.5c0,0.3-0.1,0.5-0.3,0.7
		s-0.5,0.2-0.8,0.2c-0.4,0-0.7-0.1-1-0.3s-0.4-0.5-0.4-1h-4c0,1.3,0.5,2.3,1.4,3.1c0.9,0.8,2.2,1.2,3.8,1.2c1.6,0,2.9-0.4,3.8-1.1
		C212.3,55.4,212.8,54.4,212.8,53.1z"/>
	<path class="st0" d="M220.1,52.9c-0.2-0.2-0.4-0.6-0.4-1v-3.8h2.9v-3.1h-3v-3.5h-0.8l-5.3,5.7v0.9h2.2v4.5c0,0.9,0.2,1.6,0.5,2.3
		s0.8,1.1,1.4,1.5c0.6,0.3,1.4,0.5,2.3,0.5h2.8v-3.6h-1.6C220.6,53.2,220.3,53.1,220.1,52.9z"/>
	<rect x="224.7" y="44.9" class="st0" width="4.1" height="11.9"/>
	<rect x="224.7" y="40" class="st0" width="4" height="3.5"/>
	<path class="st0" d="M239,50.1v6.7h4.1v-7.2c0-1.5-0.4-2.7-1.2-3.6s-1.9-1.4-3.3-1.4c-1.6,0-2.8,0.5-3.7,1.6l-0.6-1.2h-2.9v11.9
		h4.1v-6.3c0-0.5,0.1-1,0.2-1.3c0.1-0.4,0.4-0.6,0.7-0.8c0.3-0.2,0.7-0.3,1.1-0.3C238.5,48.1,239,48.8,239,50.1z"/>
	<path class="st0" d="M252.9,53.1c-0.4,0.3-0.9,0.5-1.4,0.5c-0.7,0-1.3-0.2-1.8-0.8s-0.7-1.1-0.7-1.9c0-0.8,0.2-1.4,0.7-1.9
		c0.5-0.5,1.1-0.7,1.8-0.7c0.5,0,1,0.1,1.4,0.4s0.7,0.7,0.9,1.2h4c-0.1-1-0.5-2-1.1-2.8s-1.3-1.4-2.2-1.8c-0.9-0.4-1.9-0.7-3-0.7
		c-1.3,0-2.4,0.3-3.4,0.8c-1,0.5-1.8,1.3-2.3,2.2s-0.9,2-0.9,3.3c0,1.2,0.3,2.3,0.9,3.3c0.6,1,1.4,1.7,2.3,2.3
		c1,0.5,2.1,0.8,3.4,0.8c1.7,0,3.1-0.5,4.2-1.5c1.2-1,1.9-2.3,2.1-3.9h-4C253.6,52.3,253.3,52.8,252.9,53.1z"/>
	<path class="st0" d="M265.9,53.2c-0.4,0-0.8-0.1-1-0.4c-0.2-0.2-0.4-0.6-0.4-1v-3.8h2.9v-3.1h-3v-3.5h-0.8l-5.3,5.7v1h2.2v4.5
		c0,1.3,0.4,2.4,1.1,3.1c0.8,0.8,1.8,1.1,3.1,1.1h2.8v-3.6L265.9,53.2L265.9,53.2z"/>
	<path class="st0" d="M283.6,51.3h3.8c-0.2,0.6-0.7,1.1-1.3,1.4c-0.6,0.4-1.4,0.5-2.2,0.5c-0.8,0-1.5-0.2-2-0.5
		c-0.6-0.3-1-0.8-1.4-1.5c-0.3-0.6-0.5-1.3-0.5-2.1c0-1.2,0.4-2.2,1.1-3c0.7-0.8,1.6-1.1,2.8-1.1c0.8,0,1.5,0.2,2.1,0.6
		c0.6,0.4,1.1,0.9,1.4,1.5h4.5c-0.3-1.8-1.2-3.3-2.7-4.4S286,41,284,41c-2.4,0-4.3,0.8-5.9,2.3c-1.5,1.5-2.3,3.5-2.3,5.8
		c0,2.3,0.8,4.3,2.3,5.8c1.5,1.5,3.5,2.3,5.9,2.3c1.6,0,3-0.4,4.2-1.1c1.2-0.7,2.2-1.8,2.9-3.1c0.7-1.3,1-2.8,1-4.5h-8.5L283.6,51.3
		L283.6,51.3z"/>
	<path class="st0" d="M297.3,46.3l-0.6-1.3H294v11.9h4.1v-6c0-0.8,0.2-1.3,0.5-1.6c0.3-0.3,0.8-0.5,1.6-0.5h1.6v-3.8h-1.1
		C299.2,44.9,298.1,45.3,297.3,46.3z"/>
	<path class="st0" d="M309,44.5c-1.9,0-3.5,0.6-4.8,1.8c-1.2,1.2-1.9,2.7-1.9,4.6c0,1.8,0.6,3.3,1.9,4.5s2.9,1.8,4.8,1.8
		c1.9,0,3.5-0.6,4.8-1.8c1.3-1.2,1.9-2.7,1.9-4.5c0-1.8-0.6-3.3-1.9-4.5C312.6,45.1,311,44.5,309,44.5z M310.9,52.8
		c-0.5,0.5-1.1,0.8-1.8,0.8s-1.4-0.2-1.9-0.8c-0.5-0.5-0.7-1.1-0.7-1.9c0-0.5,0.1-1,0.3-1.4c0.2-0.4,0.5-0.7,0.9-1s0.8-0.3,1.3-0.3
		c0.8,0,1.4,0.2,1.8,0.8s0.7,1.1,0.7,1.9C311.6,51.7,311.3,52.3,310.9,52.8z"/>
	<path class="st0" d="M325.1,51.5c0,0.6-0.2,1.1-0.5,1.5c-0.3,0.4-0.8,0.5-1.3,0.5s-1-0.2-1.3-0.5s-0.5-0.8-0.5-1.5v-6.6h-4.1v6.8
		c0,1.7,0.5,3,1.6,4c1.1,1,2.5,1.5,4.2,1.5c1.2,0,2.2-0.2,3.1-0.7s1.6-1.1,2.1-1.9c0.5-0.8,0.7-1.8,0.7-2.9v-6.8h-4.1L325.1,51.5
		L325.1,51.5z"/>
	<path class="st0" d="M338.5,44.5c-1.4,0-2.6,0.5-3.6,1.3l-0.5-1h-2.8v16.2h4v-4.7c0.9,0.5,1.9,0.8,2.9,0.8c1.8,0,3.3-0.6,4.5-1.8
		s1.8-2.7,1.8-4.6c0-1.9-0.6-3.4-1.8-4.6C341.8,45.1,340.3,44.5,338.5,44.5z M339.9,52.8c-0.5,0.5-1.1,0.8-1.9,0.8
		c-0.5,0-1-0.1-1.4-0.3c-0.4-0.2-0.7-0.6-1-1c-0.2-0.4-0.3-0.9-0.3-1.4c0-0.8,0.2-1.4,0.8-2s1.1-0.8,1.9-0.8c0.8,0,1.4,0.3,1.9,0.8
		c0.5,0.5,0.8,1.2,0.8,2C340.6,51.7,340.4,52.3,339.9,52.8z"/>
	<polygon class="st0" points="58.2,23.9 55.8,23.9 55.8,47.6 43.7,35.5 39,30.7 37.3,32.4 42,37.1 54.1,49.3 30.5,49.3 30.5,51.6
		55.8,51.6 55.8,77 58.2,77 58.2,53.3 70.3,65.5 74.6,69.7 76.2,68 72,63.8 59.9,51.6 83.5,51.6 83.5,49.3 58.2,49.3 	"/>

		<rect x="56.3" y="31.9" transform="matrix(0.7058 -0.7084 0.7084 0.7058 -1.5832 62.3381)" class="st1" width="35.8" height="2.4"/>

		<rect x="21.9" y="66.7" transform="matrix(0.7047 -0.7095 0.7095 0.7047 -36.4685 48.2002)" class="st1" width="35.5" height="2.4"/>
</g>
</svg>
